<?xml version="1.0" standalone="no"?>
<!DOCTYPE svg PUBLIC "-//W3C//DTD SVG 20010904//EN"
 "http://www.w3.org/TR/2001/REC-SVG-20010904/DTD/svg10.dtd">
<svg version="1.0" xmlns="http://www.w3.org/2000/svg"
 width="64.000000pt" height="64.000000pt" viewBox="0 0 64.000000 64.000000"
 preserveAspectRatio="xMidYMid meet">

<g transform="translate(0.000000,64.000000) scale(0.100000,-0.100000)"
fill="#000000" stroke="none">
<path d="M140 600 c0 -22 5 -40 10 -40 6 0 10 5 10 10 0 6 7 10 15 10 8 0 15
-4 15 -10 0 -5 7 -10 15 -10 11 0 15 11 15 40 0 29 -4 40 -15 40 -8 0 -15 -7
-15 -15 0 -8 -7 -15 -15 -15 -8 0 -15 7 -15 15 0 8 -4 15 -10 15 -5 0 -10 -18
-10 -40z"/>
<path d="M230 630 c0 -6 7 -13 15 -16 8 -4 15 -17 15 -30 0 -13 5 -24 10 -24
6 0 10 11 10 25 0 16 6 25 15 25 8 0 15 7 15 15 0 11 -11 15 -40 15 -22 0 -40
-5 -40 -10z"/>
<path d="M330 600 c0 -22 5 -40 10 -40 6 0 10 7 10 16 0 14 3 14 15 4 10 -9
15 -9 15 -1 0 6 5 11 10 11 6 0 10 -7 10 -15 0 -8 5 -15 10 -15 6 0 10 18 10
40 0 43 -21 55 -39 23 -9 -17 -10 -17 -16 0 -13 33 -35 19 -35 -23z"/>
<path d="M440 600 c0 -38 2 -40 30 -40 17 0 30 5 30 10 0 6 -9 10 -20 10 -16
0 -20 7 -20 30 0 17 -4 30 -10 30 -5 0 -10 -18 -10 -40z"/>
<path d="M100 490 c0 -8 7 -104 17 -214 19 -229 16 -223 119 -251 62 -17 71
-17 146 -2 127 25 122 17 137 208 6 90 15 190 18 222 l6 58 -222 -3 c-188 -2
-221 -5 -221 -18z m405 -62 c-3 -29 -12 -118 -19 -196 -8 -79 -18 -147 -22
-151 -8 -7 -125 -41 -139 -41 -3 0 -5 13 -5 28 0 27 -5 30 -60 45 -56 16 -60
19 -60 46 0 16 -3 36 -6 45 -5 13 1 16 30 16 32 0 36 -3 36 -25 0 -15 6 -25
14 -25 8 0 21 -3 30 -6 13 -5 16 2 16 39 l0 44 -59 -1 c-33 -1 -62 2 -65 5 -4
3 -9 43 -13 88 l-6 81 72 0 71 0 0 30 0 30 96 0 95 0 -6 -52z"/>
<path d="M320 390 c0 -28 -2 -30 -40 -30 -22 0 -40 -4 -40 -9 0 -28 14 -41 46
-41 31 0 34 -3 34 -30 0 -28 3 -30 36 -30 36 0 36 -1 30 -31 -3 -17 -6 -35 -6
-39 0 -4 -13 -10 -30 -13 -25 -6 -30 -11 -30 -37 0 -35 0 -35 67 -15 l50 15 7
61 c13 125 15 119 -59 119 -63 0 -65 1 -65 25 0 24 2 25 70 25 l70 0 0 30 0
30 -70 0 -70 0 0 -30z"/>
</g>
</svg>
